<svg xmlns="http://www.w3.org/2000/svg" xmlns:xlink="http://www.w3.org/1999/xlink" width="485.995" height="139.969" viewBox="0 0 485.995 139.969">
  <defs>
    <clipPath id="clip-path">
      <path id="Clip_13" data-name="Clip 13" d="M0,139.969H486V0H0Z" fill="none"/>
    </clipPath>
  </defs>
  <g id="Group_26" data-name="Group 26" transform="translate(0 -0.519)">
    <path id="Fill_1" data-name="Fill 1" d="M0,52.5V0H33.057V6.738H7.516V23.621H30.678v6.814H7.516V52.5Z" transform="translate(157.507 2.426)" fill="#FFFFFF"/>
    <g id="Group_25" data-name="Group 25" transform="translate(0 0.519)">
      <path id="Fill_2" data-name="Fill 2" d="M13.2,36.7C4.985,36.7,0,30.484,0,22.419V0H6.893V21.382c0,4.884,2.2,9.175,7.992,9.175,5.572,0,8.357-3.7,8.357-9.1V0h6.893V29a60.516,60.516,0,0,0,.366,6.585H23.9A31.874,31.874,0,0,1,23.61,31.3C21.7,35,17.3,36.7,13.2,36.7" transform="translate(191.926 18.497)" fill="#FFFFFF"/>
      <path id="Fill_4" data-name="Fill 4" d="M6.893,36.625H0V1.037H6.745V6.142A12.055,12.055,0,0,1,17.6,0c8.432,0,12.612,6.142,12.612,14.058V36.625H23.316V15.243c0-4.958-2.053-8.953-8.211-8.953-5.426,0-8.212,4.366-8.212,9.766Z" transform="translate(233.789 17.461)" fill="#FFFFFF"/>
      <path id="Fill_6" data-name="Fill 6" d="M16.717,54.529A15.541,15.541,0,0,1,4.481,49.064,20.6,20.6,0,0,1,0,35.663a19.982,19.982,0,0,1,4.619-13.1,15.748,15.748,0,0,1,12.1-5.549A13.254,13.254,0,0,1,24,18.932,9,9,0,0,1,27.5,23.01V0h6.818V46.983a56.94,56.94,0,0,0,.368,6.586H28.008a30.175,30.175,0,0,1-.368-4.809v-.593a11.173,11.173,0,0,1-4.032,4.458A12.625,12.625,0,0,1,16.717,54.529Zm.733-31.37a9.477,9.477,0,0,0-7.571,3.5,13.97,13.97,0,0,0-2.842,9c0,7.73,4.058,12.725,10.339,12.725a9.084,9.084,0,0,0,7.461-3.69,15.174,15.174,0,0,0,2.732-9.184C27.569,28.009,23.6,23.159,17.45,23.159Z" transform="translate(272.06 0.518)" fill="#FFFFFF"/>
      <path id="Fill_8" data-name="Fill 8" d="M11.8,37.809a12.315,12.315,0,0,1-8.6-3.219A10.206,10.206,0,0,1,0,27.154,9.79,9.79,0,0,1,3.07,19.7a14,14,0,0,1,7.635-3.347l9.531-1.407c1.825-.254,2.713-1.125,2.713-2.662,0-3.984-2.851-6.363-7.625-6.363C10.8,5.921,7.809,8.6,7.333,13.1l-6.6-1.554A12.249,12.249,0,0,1,5.37,3.219,15.784,15.784,0,0,1,15.177,0c4.946,0,8.745,1.313,11.292,3.9a12.661,12.661,0,0,1,3.374,9.119V30.854a33.474,33.474,0,0,0,.439,5.845H23.535l0-.016a26.44,26.44,0,0,1-.363-4.794C22.079,33.67,18.782,37.809,11.8,37.809ZM22.949,19.83,12.17,21.458c-3.261.495-5.131,2.436-5.131,5.325a5.045,5.045,0,0,0,1.54,3.59,5.926,5.926,0,0,0,4.178,1.591,10.454,10.454,0,0,0,7.214-2.34c1.976-1.776,2.978-4.523,2.978-8.166Z" transform="translate(315.902 17.387)" fill="#FFFFFF"/>
      <path id="Fill_10" data-name="Fill 10" d="M7.039,18.868c0,8.139,5.059,12.5,10.779,12.5a9.605,9.605,0,0,0,9.824-7.325l6.086,2.663a16.22,16.22,0,0,1-15.91,11.1C7.551,37.809,0,29.67,0,18.868,0,7.77,7.7,0,17.743,0c9.386,0,14.225,5.92,15.692,11.32L27.2,13.985c-.88-3.478-3.446-7.548-9.459-7.548-5.572,0-10.7,4.144-10.7,12.431" transform="translate(353.513 17.387)" fill="#FFFFFF"/>
      <path id="Clip_13-2" data-name="Clip 13" d="M0,139.969H486V0H0Z" transform="translate(0 0)" fill="none"/>
      <g id="Group_25-2" data-name="Group 25" transform="translate(0 0)" clip-path="url(#clip-path)">
        <path id="Fill_12" data-name="Fill 12" d="M8.358,54.084H1.54V18.5H8.358V54.084ZM4.912,9.988A4.94,4.94,0,0,1,0,5.031a5.061,5.061,0,0,1,1.439-3.57A4.83,4.83,0,0,1,4.912,0,4.956,4.956,0,0,1,9.9,5.031a4.917,4.917,0,0,1-1.448,3.5A4.969,4.969,0,0,1,4.912,9.988Z" transform="translate(393.763 0)" fill="#FFFFFF"/>
        <path id="Fill_14" data-name="Fill 14" d="M18.036,52.088C7.585,52.088,0,44.122,0,33.146,0,22.214,7.585,14.279,18.036,14.279s18.036,7.935,18.036,18.868C36.073,44.122,28.487,52.088,18.036,52.088Zm0-31.592a10.455,10.455,0,0,0-7.7,3.246,13.376,13.376,0,0,0-3.3,9.406,13.5,13.5,0,0,0,3.3,9.47,10.432,10.432,0,0,0,7.7,3.255,10.429,10.429,0,0,0,7.7-3.255,13.505,13.505,0,0,0,3.3-9.47,13.378,13.378,0,0,0-3.3-9.406A10.453,10.453,0,0,0,18.036,20.5ZM19.723,10.8H13.931L20.31,0h8.652L19.724,10.8Z" transform="translate(410.919 3.108)" fill="#FFFFFF"/>
        <path id="Fill_15" data-name="Fill 15" d="M6.893,36.625H0V1.037H6.745V6.142A12.055,12.055,0,0,1,17.6,0c8.432,0,12.612,6.142,12.612,14.058V36.625H23.316V15.243c0-4.958-2.053-8.953-8.211-8.953-5.426,0-8.212,4.366-8.212,9.766Z" transform="translate(455.787 17.461)" fill="#FFFFFF"/>
        <path id="Fill_16" data-name="Fill 16" d="M0,27.376C0,10.285,12.685,0,26.176,0c13.2,0,21.044,7.844,23.389,17.018L41.281,19.83C39.74,13.466,34.9,8.361,26.176,8.361c-8.579,0-17.157,6.29-17.157,19.015,0,12.282,8.357,18.793,17.23,18.793,8.725,0,13.711-5.623,15.472-11.541l8.065,2.663C47.44,46.169,39.52,54.678,26.249,54.678,12.245,54.678,0,44.467,0,27.376" transform="translate(152.409 72.343)" fill="#FFFFFF"/>
        <path id="Fill_17" data-name="Fill 17" d="M18.476,38.253a18.16,18.16,0,0,1-13.224-5.42A19.567,19.567,0,0,1,0,19.088,19.443,19.443,0,0,1,5.252,5.41,18.189,18.189,0,0,1,18.476,0,18.3,18.3,0,0,1,31.766,5.41a19.41,19.41,0,0,1,5.262,13.678,19.533,19.533,0,0,1-5.262,13.745A18.276,18.276,0,0,1,18.476,38.253Zm0-30.485a9.562,9.562,0,0,0-6.937,2.858,11.831,11.831,0,0,0-3.033,8.461,12.071,12.071,0,0,0,3.033,8.536,9.478,9.478,0,0,0,6.937,2.932,9.5,9.5,0,0,0,6.967-2.9,12.112,12.112,0,0,0,3.007-8.565,11.864,11.864,0,0,0-3.007-8.461A9.571,9.571,0,0,0,18.476,7.769Z" transform="translate(206.298 88.769)" fill="#FFFFFF"/>
        <path id="Fill_18" data-name="Fill 18" d="M8.432,50.9H0V.814H8.213V5.7a10.566,10.566,0,0,1,4.279-4.014A15.038,15.038,0,0,1,19.576,0,15.313,15.313,0,0,1,31.785,5.4c2.806,3.368,4.29,8,4.29,13.392a20.62,20.62,0,0,1-4.546,13.522,15.641,15.641,0,0,1-12.244,5.419c-4.647,0-8.806-1.9-10.852-4.956V50.9ZM17.963,7.62a9,9,0,0,0-6.892,3.062,12.1,12.1,0,0,0-2.713,8.111,12.367,12.367,0,0,0,2.713,8.241,8.956,8.956,0,0,0,6.892,3.08c5.746,0,9.606-4.55,9.606-11.321C27.569,12.11,23.709,7.62,17.963,7.62Z" transform="translate(251.533 89.065)" fill="#FFFFFF"/>
        <path id="Fill_19" data-name="Fill 19" d="M8.432,50.9H0V.814H8.213V5.7a10.566,10.566,0,0,1,4.279-4.014A15.038,15.038,0,0,1,19.576,0,15.313,15.313,0,0,1,31.785,5.4c2.806,3.368,4.29,8,4.29,13.392a20.62,20.62,0,0,1-4.546,13.522,15.641,15.641,0,0,1-12.244,5.419c-4.647,0-8.806-1.9-10.852-4.956V50.9ZM17.963,7.62a9,9,0,0,0-6.892,3.062,12.1,12.1,0,0,0-2.713,8.111,12.367,12.367,0,0,0,2.713,8.241,8.956,8.956,0,0,0,6.892,3.08c5.746,0,9.606-4.55,9.606-11.321C27.569,12.11,23.709,7.62,17.963,7.62Z" transform="translate(295.815 89.065)" fill="#FFFFFF"/>
        <path id="Fill_20" data-name="Fill 20" d="M18.257,38.253A18.017,18.017,0,0,1,5.5,33.175C1.9,29.634,0,24.712,0,18.941A19.517,19.517,0,0,1,5.306,5.2,16.973,16.973,0,0,1,17.377,0c5.352,0,9.8,1.759,12.851,5.087,3.01,3.28,4.6,7.993,4.6,13.632a12.691,12.691,0,0,1-.221,2.737H8.505a9.6,9.6,0,0,0,9.751,9.4,9.447,9.447,0,0,0,5.958-1.813A9.153,9.153,0,0,0,27.2,24.564l7.188,2.294a15.756,15.756,0,0,1-5.564,8.055A17.3,17.3,0,0,1,18.257,38.253ZM17.45,7.177a8.487,8.487,0,0,0-6.26,2.552,8.9,8.9,0,0,0-2.466,5.439H26.249a8.287,8.287,0,0,0-2.256-5.577A8.922,8.922,0,0,0,17.45,7.177Z" transform="translate(337.311 88.769)" fill="#FFFFFF"/>
        <path id="Fill_21" data-name="Fill 21" d="M0,53.568H8.5V0H0Z" transform="translate(380.273 72.344)" fill="#FFFFFF"/>
        <path id="Fill_22" data-name="Fill 22" d="M36.059,18.193v3.73A3.655,3.655,0,0,0,39.7,25.594h3.7a18.195,18.195,0,0,1,0,36.388H3.639A3.656,3.656,0,0,1,0,58.31V18.193a18.03,18.03,0,1,1,36.059,0Z" transform="translate(0 63.808)" fill="#fed925"/>
        <path id="Fill_23" data-name="Fill 23" d="M18.029,36.387h3.7a3.655,3.655,0,0,1,3.638,3.671v3.73a18.03,18.03,0,1,0,36.059,0V3.672A3.655,3.655,0,0,0,57.784,0H18.029a18.194,18.194,0,0,0,0,36.387Z" transform="translate(61.021 1.827)" fill="#fed925"/>
        <path id="Fill_24" data-name="Fill 24" d="M4.313,4.352a14.632,14.632,0,0,1,20.825,0,14.955,14.955,0,0,1,0,21.015,14.632,14.632,0,0,1-20.825,0A14.955,14.955,0,0,1,4.313,4.352Z" transform="translate(46.451 48.903)" fill="#215aa8"/>
      </g>
    </g>
  </g>
</svg>
